<?xml version="1.0" encoding="UTF-8"?>
<svg width="44px" height="42px" viewBox="0 0 44 42" version="1.1" xmlns="http://www.w3.org/2000/svg" xmlns:xlink="http://www.w3.org/1999/xlink">
    <g id="logo" stroke="none" stroke-width="1" fill="none" fill-rule="evenodd">
        <path d="M43.6555417,24.1704936 C43.4431656,24.009694 43.2648166,23.9724941 42.9879062,24.018094 C42.5044865,24.1020938 41.9717862,24.5484927 41.631515,25.2960908 C40.5661143,27.6300848 38.9410263,28.0992837 38.9410263,28.0992837 L29.5870897,25.198891 C28.8373198,24.9576916 28.0558695,24.8352919 27.2697258,24.8364919 L20.9277756,24.8364919 C20.9277756,24.8364919 21.8852282,23.4588954 22.4543024,22.6548975 C23.7707997,20.7997022 25.6798382,20.7997022 26.348647,20.7997022 L32.4876079,20.7997022 C33.1916172,20.7997022 33.8827196,20.6053027 34.4893409,20.2381036 L40.6247818,16.522913 C40.793744,16.5913129 41.4954066,16.8985121 42.0949878,16.8865121 C42.791957,16.8733122 42.9656126,16.7149126 42.9949463,16.533713 C43.0184133,16.3789134 42.8318509,16.2157138 42.4552059,16.2433138 C41.6444219,16.3033136 41.5388205,15.2137164 43.3058838,15.0001169 C43.6191679,14.962917 43.9430122,15.0829167 43.9958129,14.8237174 C44.0310133,14.6521178 43.8409308,14.4865182 43.5323401,14.4325184 C43.3868448,14.4061184 42.946839,14.4049184 42.7837436,14.4121184 C42.7837436,14.4121184 42.795477,14.175719 42.4164854,14.175719 C42.1747755,14.175719 41.2560434,14.4289184 40.4957134,14.7037177 C40.0780012,14.8537173 33.0918825,17.70731 33.0918825,17.70731 L29.6375437,17.70731 C29.0989766,18.900107 28.5815298,19.2721061 28.5815298,19.2721061 C28.5815298,19.2721061 28.2588588,19.4665056 27.9150676,19.4353057 C27.690958,19.3333059 26.57745,18.121309 26.473022,17.3773109 C26.6419842,16.0453143 27.0608697,15.0517168 27.0608697,15.0517168 C27.0608697,15.0517168 29.4157808,15.8785147 31.0666825,15.1933164 C31.4386341,14.3281186 30.9998016,14.2885187 30.9763346,13.7293201 C30.9528677,13.1689216 30.9446542,12.6889228 30.6184633,12.2509239 C30.2922723,11.811725 29.7255448,11.7229252 29.7454918,11.426526 C29.7654387,11.1289267 29.6481038,10.8361275 29.2632454,10.6909279 C28.878387,10.5457282 28.9006806,10.1161293 28.3269131,10.0933294 C27.7531455,10.0693294 27.4668484,10.3381288 27.1160171,10.3561287 C26.6713179,10.3801286 26.4624618,10.623728 26.4014477,10.9225273 C26.3404336,11.2189265 26.3345668,11.5477257 26.0107226,11.6617254 C25.6880516,11.7745251 25.1964185,11.8393249 25.2175388,12.4705233 C25.238659,13.1041217 24.9617487,13.5709205 24.4947559,13.8997197 C23.9491487,13.1737216 22.903695,12.6841228 19.465783,11.3401262 C18.8591617,11.1037268 13.2575945,8.57533323 8.14766052,2.68094819 C7.59501324,2.04374981 7.09751335,0.877352771 6.51201231,0.462153825 C6.19403478,0.236554398 5.76576247,0.337354142 5.76576247,0.337354142 C5.62144057,0.253354355 5.31167649,0.103354736 5.17087463,0.0625548399 C4.94911171,-0.0034449925 4.65460117,-0.0574448554 4.5712934,0.120154694 C4.45982527,0.358954087 4.80830986,0.451353853 5.04649966,0.662553317 C5.50058565,1.0621523 5.96875181,1.4977512 6.04853953,1.7329506 C6.20576827,2.19614942 5.84320349,2.37014898 5.77866931,2.37014898 C5.53695946,2.37374897 5.46538518,2.22254936 5.32458333,2.07134974 C5.06409989,1.79175045 4.9174313,1.88535021 4.85289711,2.02814985 C4.77780279,2.19374943 4.88457753,2.42174885 4.88457753,2.42174885 C4.99017892,2.61254837 5.12159399,2.82974781 5.45834509,3.04094728 C6.01216572,3.39134639 6.38294394,3.40454635 6.55894626,3.44414625 L6.55777291,3.44414625 C6.55777291,3.44414625 17.420636,15.9841144 17.7996277,16.4245133 C14.2854481,18.5773078 11.0646056,21.5017004 9.59909298,24.805292 C12.9055899,23.5632952 15.8166682,23.8320945 18.2689672,24.2220935 L17.8289614,24.8364919 C17.8289614,24.8364919 13.1508198,24.6444924 9.76336181,27.8832842 C8.16995415,30.2892781 8.73902832,35.6676644 8.73902832,35.6676644 C6.29259608,35.6676644 4.80713651,34.1736682 4.80713651,34.1736682 C4.80713651,34.1736682 1.37626464,34.7508668 0.175928821,39.1140557 C-0.132661912,40.2384528 -0.0587409378,41.5224496 0.58542755,41.8836487 C1.28943683,42.2784477 1.87611122,41.5752494 2.09083405,41.1636505 C3.18791517,39.0564558 5.00191241,38.3820575 5.00191241,38.3820575 L7.84845658,40.5900519 C9.1931143,41.5608495 10.0121118,40.4184524 10.4626777,39.788454 L15.7134135,32.286073 L27.0444428,28.8768817 C27.0444428,28.8768817 34.8530791,30.2880781 37.0120408,30.6672771 C39.0501477,31.0248762 40.5825412,32.0556736 40.5825412,32.0556736 C40.5825412,32.0556736 41.8661848,31.1928758 42.795477,29.6880796 C43.4431656,28.6392823 43.8198105,27.4104854 43.9477056,26.1696886 C44.0380534,25.2960908 44.0509603,24.4692929 43.6555417,24.1704936" id="Fill" fill="#ffffff"></path>
    </g>
</svg>