<?xml version="1.0" encoding="UTF-8"?>
<svg width="156px" height="44px" viewBox="0 0 156 44" version="1.1" xmlns="http://www.w3.org/2000/svg" xmlns:xlink="http://www.w3.org/1999/xlink">
    <g id="Brand-/-Atrapalo-/-Logo" stroke="none" stroke-width="1" fill="none" fill-rule="evenodd">
        <path d="M39.0727859,22.1490273 C38.8822049,22.0084514 38.7234248,21.9757515 38.4756471,22.0157555 C38.0423451,22.0887965 37.566005,22.4800719 37.2608057,23.1345198 C36.3081256,25.1768602 34.8528105,25.5870138 34.8528105,25.5870138 L26.4811814,23.0490055 C25.8099903,22.8384226 25.1108188,22.7313331 24.4073772,22.7314455 L18.7311879,22.7314455 C18.7311879,22.7314455 19.5874538,21.5260433 20.0975052,20.8226017 C21.2751518,19.198618 22.9845373,19.198618 23.5830245,19.198618 L29.0769483,19.198618 C29.7073488,19.198618 30.3260628,19.0291627 30.8684769,18.7080068 L36.360378,15.4562188 C36.5110673,15.5160001 37.1395576,15.7852407 37.6762408,15.7747902 C38.2998991,15.7626542 38.4557575,15.6238762 38.4810409,15.4662198 C38.5027285,15.329914 38.3354083,15.1873154 37.9980709,15.2115875 C37.2729418,15.2636152 37.1782131,14.3107103 38.7597206,14.1240623 C39.0401983,14.0910253 39.3304522,14.1958673 39.3777604,13.9687658 C39.4089995,13.8186383 39.23887,13.6744665 38.9619882,13.6265965 C38.8321998,13.6041223 38.4384523,13.603111 38.2921455,13.6088419 C38.2921455,13.6088419 38.3032702,13.4024166 37.9635731,13.4024166 C37.7479334,13.4024166 36.925154,13.6238996 36.2445237,13.8640361 C35.87134,13.9957348 29.6183511,16.4926153 29.6183511,16.4926153 L26.5261298,16.4926153 C26.043834,17.5369901 25.5812032,17.8625285 25.5812032,17.8625285 C25.5812032,17.8625285 25.2921853,18.0319837 24.9842892,18.0049023 C24.7841567,17.9155675 23.7878766,16.8553484 23.6943841,16.2038222 C23.8451858,15.0387611 24.2206168,14.1684488 24.2206168,14.1684488 C24.2206168,14.1684488 26.3282447,14.892679 27.8051349,14.2921691 C28.1379774,13.5350142 27.7455783,13.5009659 27.7247897,13.0110289 C27.7040011,12.521092 27.6961352,12.1012744 27.4040833,11.7173032 C27.1120314,11.333332 26.6047894,11.2557961 26.6231058,10.9957699 C26.6413099,10.7357437 26.5353442,10.4796505 26.1909275,10.3524467 C25.8463984,10.2251305 25.8664004,9.84936237 25.352978,9.82913561 C24.8397802,9.80879649 24.5832376,10.0442134 24.2696105,10.0599454 C23.8717053,10.0800597 23.6841583,10.2941262 23.6297708,10.5546019 C23.5753833,10.8149652 23.5697648,11.1022975 23.2806345,11.2017457 C22.9916167,11.3011939 22.5513477,11.3571546 22.5701136,11.9099068 C22.5888795,12.4641199 22.3413265,12.872588 21.9231945,13.1604822 C21.4348308,12.5250249 20.4997928,12.0972291 17.421955,10.9210433 C16.8790913,10.7136067 11.866452,8.50057492 7.29205897,3.34207818 C6.79785192,2.78483108 6.35241383,1.76439129 5.82842851,1.40042207 C5.54390549,1.2028741 5.16027137,1.29164708 5.16027137,1.29164708 C5.03138199,1.21838128 4.75472493,1.08701974 4.62819534,1.05061158 C4.43019788,0.993751929 4.1663511,0.945994313 4.09207396,1.10162796 C3.99228864,1.31097487 4.30355592,1.39176952 4.51739767,1.5761701 C4.92316885,1.92575585 5.34276164,2.30736729 5.41400477,2.5128936 C5.55469309,2.91855241 5.22971656,3.07002833 5.17218268,3.07092729 C4.9557564,3.07407368 4.89215449,2.94181317 4.76584964,2.80932793 C4.53245537,2.56458419 4.40143094,2.6459407 4.34333521,2.77100947 C4.27602506,2.91585551 4.37232689,3.11531378 4.37232689,3.11531378 C4.46660604,3.28297111 4.58459545,3.47231601 4.88507513,3.65795267 C5.38141722,3.96461275 5.71257415,3.97584984 5.87090469,4.0106848 L5.86944387,4.01079717 C5.86944387,4.01079717 15.5922202,14.9852726 15.9313555,15.3698057 C12.785758,17.2538155 9.90355778,19.8136237 8.59174035,22.7041394 C11.5511393,21.6176255 14.1563454,21.8528177 16.3510607,22.1945375 L15.9575379,22.7314455 C15.9575379,22.7314455 11.7700378,22.5641253 8.73815958,25.3977813 C7.31251047,27.5039483 7.82177521,32.2106018 7.82177521,32.2106018 C5.63267847,32.2106018 4.30231984,30.9032792 4.30231984,30.9032792 C4.30231984,30.9032792 1.23223555,31.4080491 0.15785775,35.2267481 C-0.11891168,36.210555 -0.0526128723,37.3347131 0.523737273,37.6507 C1.15458729,37.9964651 1.67980869,37.3802233 1.87128864,37.0205242 C2.85296048,35.1761812 4.47739364,34.5863466 4.47739364,34.5863466 L7.0250658,36.5184512 C8.22867009,37.3681996 8.96076625,36.3685484 9.36440239,35.8173694 L14.0643136,29.25154 L24.2057838,26.2675317 C24.2057838,26.2675317 31.1941277,27.5030494 33.1265694,27.834431 C34.9506856,28.1471591 36.3228461,29.0492724 36.3228461,29.0492724 C36.3228461,29.0492724 37.4712763,28.2947021 38.3030455,26.9777156 C38.8827667,26.059758 39.2197669,24.9844813 39.33461,23.8990911 C39.415517,23.1339579 39.4272036,22.4105143 39.0727859,22.1490273" id="Fill-1" fill="#FFFFFF"></path>
        <path d="M55.3285793,22.570036 L56.5742103,15.6388889 L56.6942224,13.6285742 L57.2642798,13.6285742 L57.3544012,15.6388889 L58.6246414,22.570036 L55.3285793,22.570036 Z M53.9337198,11.4982474 L49.8830874,32.5017098 L53.5436806,32.5017098 L54.7461612,25.8105869 L59.2185214,25.8105869 L60.4448246,32.5017098 L64.1054178,32.5017098 L60.0247824,11.4982474 L53.9337198,11.4982474 Z" id="Fill-4" fill="#FFFFFF"></path>
        <polygon id="Fill-6" fill="#FFFFFF" points="62.5148195 14.7687002 66.9856066 14.7687002 66.9856066 32.501721 70.5261877 32.501721 70.5261877 14.7687002 74.9668593 14.7687002 74.9668593 11.4982587 62.5148195 11.4982587"></polygon>
        <path d="M79.8576325,14.7387421 L81.567917,14.7387421 C82.1079714,14.7387421 82.5979083,14.8540346 83.0381774,15.0837207 C83.4778845,15.3139686 83.7981415,15.6290565 83.998274,16.028872 C84.1183984,16.2492312 84.2032384,16.493975 84.2533558,16.7640022 C84.3030238,17.0341417 84.3284196,17.3294523 84.3284196,17.6491474 C84.3284196,17.9896311 84.2984166,18.3046067 84.2382982,18.5944111 C84.1782921,18.8845527 84.0882831,19.1494108 83.968271,19.3895473 C83.7479117,19.7696979 83.4282166,20.0599519 83.0081743,20.2596349 C82.5881321,20.4597674 82.1079714,20.5596651 81.567917,20.5596651 L79.8576325,20.5596651 L79.8576325,14.7387421 Z M83.5182257,23.2001556 L83.5182257,22.7319062 C84.1062624,22.630323 84.65216,22.4576089 85.1534464,22.2099436 C86.003532,21.7899013 86.6584294,21.1799523 87.1188128,20.379647 C87.3785019,19.9596047 87.5735777,19.4897821 87.7039279,18.9693927 C87.8338286,18.4494527 87.8988913,17.9296251 87.8988913,17.4092356 C87.8988913,16.7691712 87.8286595,16.1639418 87.6888702,15.5938844 C87.5487437,15.0237146 87.358837,14.5188324 87.1188128,14.0785633 C86.6185377,13.1985871 85.9185796,12.5484093 85.018489,12.128367 C84.1183984,11.7082124 83.0578423,11.4981912 81.8379442,11.4981912 L76.3170514,11.4981912 L76.3170514,32.5016536 L79.8576325,32.5016536 L79.8576325,23.3501707 L80.7962663,23.3501707 L84.3284196,32.5016536 L88.2890429,32.5016536 L84.6884558,23.5301888 L83.5182257,23.2001556 Z" id="Fill-8" fill="#FFFFFF"></path>
        <path d="M94.3342919,22.570036 L95.5799229,15.6388889 L95.6999349,13.6285742 L96.2699923,13.6285742 L96.3601137,15.6388889 L97.630354,22.570036 L94.3342919,22.570036 Z M92.9394324,11.4982474 L88.8887999,32.5017098 L92.5493931,32.5017098 L93.7518737,25.8105869 L98.224234,25.8105869 L99.4505372,32.5017098 L103.11113,32.5017098 L99.0304949,11.4982474 L92.9394324,11.4982474 Z" id="Fill-10" fill="#FFFFFF"></path>
        <path d="M112.412314,18.7743955 C112.352308,19.0444227 112.232296,19.3098427 112.052277,19.5695317 C111.812253,19.989574 111.482108,20.309831 111.062065,20.5297407 C110.642023,20.7501 110.141748,20.859774 109.561802,20.859774 L107.97153,20.859774 L107.97153,14.7387084 L109.561802,14.7387084 C110.141748,14.7387084 110.642023,14.8489442 111.062065,15.0687416 C111.482108,15.2891009 111.812253,15.5990197 112.052277,15.9989476 C112.232296,16.2591985 112.352308,16.5342824 112.412314,16.8240869 C112.47232,17.1143408 112.502323,17.4494307 112.502323,17.8292442 C112.502323,18.1892804 112.47232,18.5043683 112.412314,18.7743955 M115.982898,17.8292442 C115.982898,17.1690654 115.912554,16.5292257 115.772877,15.9089386 C115.632638,15.2891009 115.442843,14.7490465 115.202819,14.2886631 C114.642538,13.4086869 113.89235,12.7236741 112.952368,12.2334001 C112.011936,11.7433508 110.921939,11.4982699 109.681814,11.4982699 L104.430949,11.4982699 L104.430949,32.5017323 L107.97153,32.5017323 L107.97153,24.1603309 L109.681814,24.1603309 C110.921939,24.1603309 112.011936,23.9104181 112.952368,23.410143 C113.89235,22.9104298 114.642538,22.2100222 115.202819,21.3098193 C115.442843,20.810106 115.632638,20.2699393 115.772877,19.6895438 C115.912554,19.1095978 115.982898,18.4893106 115.982898,17.8292442" id="Fill-12" fill="#FFFFFF"></path>
        <path d="M120.738208,22.570036 L121.983839,15.6388889 L122.103851,13.6285742 L122.673908,13.6285742 L122.76403,15.6388889 L124.03427,22.570036 L120.738208,22.570036 Z M119.343348,11.4982474 L115.292716,32.5017098 L118.953309,32.5017098 L120.15579,25.8105869 L124.62815,25.8105869 L125.854453,32.5017098 L129.515046,32.5017098 L125.434411,11.4982474 L119.343348,11.4982474 Z" id="Fill-14" fill="#FFFFFF"></path>
        <polygon id="Fill-16" fill="#FFFFFF" points="134.675566 11.4982137 131.134985 11.4982137 131.134985 32.5016761 140.676619 32.5016761 140.676619 29.2311222 134.675566 29.2311222"></polygon>
        <path d="M150.983196,24.1903002 C150.953193,24.8705934 150.882849,25.5156021 150.773175,26.1256635 C150.662939,26.7359497 150.548096,27.2311681 150.428084,27.6108692 C150.248066,28.0712526 150.027707,28.4561228 149.768017,28.7660417 C149.507767,29.07641 149.212905,29.306096 148.882872,29.4561111 C148.552839,29.6061262 148.167407,29.6811899 147.727587,29.6811899 C147.347437,29.6811899 146.982231,29.6061262 146.632421,29.4561111 C146.282273,29.306096 145.992019,29.0810172 145.762333,28.7810993 C145.532085,28.4810691 145.327233,28.0909175 145.147215,27.6108692 C144.907191,27.0108088 144.742118,26.2207293 144.652109,25.2405183 C144.5621,24.2606444 144.517152,23.1804233 144.517152,21.9999674 C144.517152,21.2601176 144.541986,20.5400451 144.592103,19.8395252 C144.641771,19.1396795 144.706946,18.4795007 144.787179,17.8592135 C144.86685,17.2394882 144.986862,16.7489894 145.147215,16.3889532 C145.327233,15.9089049 145.532085,15.5188656 145.762333,15.2188354 C145.992019,14.9186928 146.277104,14.6937264 146.617476,14.5437113 C146.957397,14.3936962 147.32721,14.3186324 147.727587,14.3186324 C148.147742,14.3186324 148.537781,14.3936962 148.897818,14.5437113 C149.257854,14.6937264 149.557884,14.9238619 149.79802,15.2337807 C150.038045,15.544149 150.248066,15.9290192 150.428084,16.3889532 C150.647994,16.9891259 150.803178,17.7795426 150.893187,18.7594165 C150.983196,19.7397399 151.028144,20.8198486 151.028144,21.9999674 C151.028144,22.7800459 151.013199,23.5104565 150.983196,24.1903002 M154.388707,18.1142954 C154.248581,16.9641796 154.03856,15.9689109 153.758644,15.128714 C153.398608,14.2286234 152.958339,13.4785479 152.438399,12.8783751 C151.918009,12.2783147 151.272888,11.8235498 150.503148,11.5131815 C149.732845,11.2032627 148.807808,11.0480785 147.727587,11.0480785 C146.747376,11.0480785 145.8674,11.2032627 145.087209,11.5131815 C144.307018,11.8235498 143.636726,12.2783147 143.076895,12.8783751 C142.516613,13.4785479 142.096571,14.2286234 141.816655,15.128714 C141.616523,15.7288867 141.446281,16.3889532 141.306604,17.109138 C141.166365,17.8293229 141.06658,18.5896241 141.006574,19.3894799 C140.946568,20.1897852 140.916565,21.0599851 140.916565,21.9999674 C140.916565,23.4204474 140.981178,24.7055206 141.111528,25.855524 C141.241429,27.0060892 141.476284,28.0112466 141.816655,28.870996 C142.096571,29.771199 142.511444,30.5213869 143.061837,31.1214473 C143.61178,31.7215077 144.281735,32.176722 145.072152,32.4866409 C145.862231,32.7965597 146.757153,32.9517438 147.75759,32.9517438 C148.817697,32.9517438 149.732845,32.7965597 150.503148,32.4866409 C151.272888,32.176722 151.918009,31.7215077 152.438399,31.1214473 C152.958339,30.5213869 153.398608,29.771199 153.758644,28.870996 C153.978554,28.2911624 154.148683,27.6408722 154.268695,26.9206874 C154.388707,26.2006149 154.47366,25.4406508 154.523777,24.6403455 C154.573445,23.8406021 154.598728,22.960064 154.598728,21.9999674 C154.598728,20.5595977 154.528497,19.2647482 154.388707,18.1142954" id="Fill-18" fill="#FFFFFF"></path>
        <polygon id="Fill-21" fill="#FFFFFF" points="99.5141391 6.64675912 93.6096122 7.36244913 93.6096122 9.8479802 99.5141391 9.8479802"></polygon>
    </g>
</svg>